<?xml version="1.0" encoding="UTF-8" standalone="no"?>
<svg
   xmlns:dc="http://purl.org/dc/elements/1.1/"
   xmlns:cc="http://creativecommons.org/ns#"
   xmlns:rdf="http://www.w3.org/1999/02/22-rdf-syntax-ns#"
   xmlns:svg="http://www.w3.org/2000/svg"
   xmlns="http://www.w3.org/2000/svg"
   id="svg8"
   version="1.1"
   viewBox="0 0 173.73608 130.35878"
   height="130.35878mm"
   width="173.73608mm">
  <defs
     id="defs2" />
  <metadata
     id="metadata5">
    <rdf:RDF>
      <cc:Work
         rdf:about="">
        <dc:format>image/svg+xml</dc:format>
        <dc:type
           rdf:resource="http://purl.org/dc/dcmitype/StillImage" />
        <dc:title></dc:title>
      </cc:Work>
    </rdf:RDF>
  </metadata>
  <g
     transform="translate(-16.586486,-68.151235)"
     id="layer1">
    <path
       id="path8557"
       d="m 133.94655,188.33709 c -0.20065,-0.10121 -0.44597,-0.32611 -0.54516,-0.49978 -0.22069,-0.38633 -0.38052,-1.75943 -0.51458,-4.42056 -0.10315,-2.04736 -0.19238,-3.00999 -0.49273,-5.3152 -0.10958,-0.84098 -0.16424,-1.94218 -0.15152,-3.05229 0.0315,-2.75007 -0.19017,-7.5784 -0.36338,-7.91473 -0.0805,-0.1562 -0.31489,-0.41261 -0.52097,-0.56979 -0.6913,-0.52729 -0.87723,-1.26869 -0.43722,-1.74348 0.84447,-0.91119 0.84688,-0.93466 0.39416,-3.83613 -0.33946,-2.17561 -0.6089,-3.4281 -0.94703,-4.40226 -0.28395,-0.8181 -0.30305,-1.364 -0.0572,-1.63563 0.35624,-0.39365 1.01851,-0.19778 1.53004,0.45252 0.33872,0.43062 0.83463,1.79736 1.00023,2.75665 0.38123,2.20847 0.47383,2.80096 0.56753,3.63117 0.21217,1.87993 0.44086,2.42078 1.02356,2.42078 0.15332,0 0.80456,-0.29351 1.44721,-0.65226 0.99327,-0.55447 1.36173,-0.84164 2.45785,-1.91553 0.70918,-0.69481 1.5088,-1.59026 1.77693,-1.98989 0.84468,-1.25899 1.16073,-2.54431 0.87691,-3.56622 -0.2752,-0.99083 -1.87223,-1.69871 -5.67991,-2.51757 -1.4745,-0.3171 -1.56734,-0.32452 -2.74337,-0.21903 -0.74013,0.0664 -1.46206,0.19906 -1.8419,0.33851 -0.96634,0.35476 -1.3998,0.3738 -1.83368,0.0805 -0.76095,-0.51434 -0.67514,-1.1203 0.2417,-1.70679 0.9825,-0.6285 1.52277,-0.72523 3.69473,-0.66149 1.14942,0.0337 2.19624,0.12179 2.64218,0.22226 1.25858,0.28357 3.48115,0.98562 4.23037,1.33626 0.39307,0.18396 0.9271,0.42568 1.18675,0.53715 0.49713,0.21345 1.80904,1.48493 2.37545,2.30227 0.29317,0.42306 0.31,0.50502 0.31,1.51033 0,1.04823 -0.007,1.07686 -0.48387,2.0614 -0.84597,1.74555 -2.22839,3.36364 -4.06558,4.75864 -1.32853,1.00877 -1.7349,1.2324 -3.12226,1.71818 -0.63036,0.22072 -1.28758,0.52035 -1.46049,0.66584 l -0.31438,0.26453 0.0667,1.6898 c 0.0367,0.92939 0.095,2.42393 0.12954,3.3212 0.0455,1.18186 0.0184,1.96827 -0.0986,2.85395 -0.13583,1.02853 -0.1394,1.28743 -0.0225,1.63139 0.0764,0.22487 0.17165,0.90616 0.21163,1.51399 0.04,0.60783 0.14317,1.36564 0.22932,1.68402 0.0862,0.31839 0.19922,1.3367 0.25129,2.26291 0.0521,0.92621 0.14181,2.15765 0.19943,2.73654 0.0576,0.57888 0.10647,1.60264 0.10854,2.27502 0.003,1.08076 -0.0215,1.25467 -0.21439,1.49983 -0.25449,0.32353 -0.53466,0.34855 -1.04129,0.093 z m -26.77752,-16.6595 c -0.87994,-0.26346 -1.41253,-1.5128 -0.94193,-2.20955 0.0967,-0.14313 0.39269,-0.50111 0.65782,-0.79552 0.26513,-0.29441 0.68403,-0.91013 0.93089,-1.36827 0.24685,-0.45814 0.68123,-1.08135 0.96529,-1.38491 0.31073,-0.33205 0.79802,-1.08266 1.22324,-1.8842 0.80722,-1.52164 0.87737,-1.91356 0.44421,-2.48194 -0.1444,-0.18947 -0.38698,-0.59022 -0.53907,-0.89055 -0.34798,-0.68713 -1.27863,-1.40095 -1.82683,-1.40119 -0.3427,-1e-4 -1.4401,-0.59329 -2.13657,-1.15482 -0.37627,-0.30336 -1.01567,-0.71863 -1.42089,-0.92281 -0.40522,-0.20418 -1.11567,-0.6159 -1.57877,-0.91493 -0.46311,-0.29903 -1.07883,-0.67947 -1.36827,-0.84542 -0.28945,-0.16595 -0.66835,-0.40815 -0.84202,-0.53823 -0.17366,-0.13007 -0.57625,-0.35779 -0.894634,-0.50604 -0.617365,-0.28746 -1.909005,-1.05275 -3.368047,-1.99557 -0.49205,-0.31795 -1.147234,-0.67356 -1.455964,-0.79024 -0.308731,-0.11668 -0.877089,-0.39865 -1.263017,-0.62661 -0.38593,-0.22796 -0.899052,-0.52703 -1.140271,-0.6646 -0.24122,-0.13758 -0.667488,-0.38701 -0.947263,-0.55429 -1.410123,-0.84314 -1.924283,-1.12213 -2.435347,-1.32147 -0.307118,-0.11979 -1.112291,-0.51885 -1.789275,-0.8868 -0.676984,-0.36795 -1.467695,-0.78577 -1.757136,-0.92847 -2.125987,-1.04821 -4.22711,-2.39318 -5.20487,-3.33173 -0.65197,-0.62583 -0.93142,-1.24455 -0.7995,-1.77015 0.14871,-0.59251 1.28019,-0.86554 1.89956,-0.45837 0.17367,0.11416 1.10632,0.74154 2.072572,1.39418 1.776787,1.20011 2.423478,1.60184 3.663635,2.27591 0.376274,0.20452 0.902704,0.52841 1.169845,0.71976 0.26714,0.19134 0.672207,0.4137 0.900149,0.49412 0.227942,0.0804 1.359223,0.62653 2.513956,1.21356 1.154735,0.58704 2.604678,1.30263 3.222098,1.5902 0.617418,0.28757 1.706771,0.88582 2.420783,1.32944 0.714011,0.44362 1.540336,0.91403 1.836276,1.04536 0.295941,0.13132 0.84973,0.42953 1.23064,0.66267 0.38092,0.23315 0.92322,0.54078 1.20512,0.68363 0.28191,0.14285 0.77011,0.46903 1.08489,0.72484 0.31479,0.25582 1.11912,0.75337 1.7874,1.10568 2.07086,1.09174 5.96604,3.77115 6.82871,4.69734 0.17538,0.18829 0.36385,0.27395 0.60277,0.27395 0.37634,0 0.40557,-0.0324 0.96037,-1.0658 0.17487,-0.32569 0.48853,-0.84016 0.69702,-1.14326 0.2085,-0.30311 0.37909,-0.6132 0.37909,-0.68909 0,-0.28526 0.5371,-0.78565 0.84328,-0.78565 0.50566,0 0.84289,0.47249 1.50882,2.11406 0.33849,0.83441 0.86522,2.03811 1.17051,2.67488 0.30529,0.63677 0.59103,1.27617 0.63499,1.42089 0.0439,0.14472 0.20919,0.52363 0.36718,0.84201 0.45358,0.91401 0.91629,2.52903 1.3209,4.61032 0.0372,0.1912 0.2764,0.85299 0.53162,1.47065 0.67889,1.64293 0.66044,1.71715 -0.58147,2.3386 l -0.67714,0.33883 -1.69102,-0.13273 c -1.29898,-0.10196 -1.85162,-0.10457 -2.38377,-0.0113 -0.38102,0.0668 -1.38007,0.12146 -2.22012,0.12146 -1.25325,0 -1.63716,0.0378 -2.1392,0.21051 -0.49755,0.17118 -0.86925,0.20881 -1.98994,0.20145 -0.75796,-0.005 -1.51454,-0.0499 -1.6813,-0.0998 z m 10.13928,-2.74696 c 0.43628,-0.15209 0.49093,-0.45574 0.2689,-1.49395 -0.21819,-1.02022 -1.03395,-3.87922 -1.32377,-4.63946 -0.11239,-0.2948 -0.27657,-0.88435 -0.36485,-1.3101 -0.23651,-1.14061 -0.40493,-1.48881 -0.72012,-1.48881 -0.31155,0 -0.49942,0.17331 -0.86609,0.79898 -0.21535,0.36748 -0.26094,0.55288 -0.21165,0.86088 0.18005,1.1252 0.18704,1.26958 0.0719,1.48479 -0.0672,0.12564 -0.41878,0.36854 -0.78121,0.53977 -0.77751,0.36736 -1.00556,0.59109 -1.39409,1.36765 -0.15929,0.31838 -0.68383,1.20094 -1.16564,1.96123 -0.48181,0.76029 -0.87601,1.46701 -0.87601,1.57048 0,0.10348 0.0829,0.2813 0.18419,0.39516 0.17842,0.20054 0.28858,0.20481 3.52035,0.13632 1.89139,-0.0401 3.4756,-0.11931 3.65813,-0.18294 z m 32.65778,0.37915 c -0.7046,-0.4984 -0.96619,-2.18973 -1.00065,-6.46968 -0.0183,-2.27805 0.0204,-3.41391 0.16101,-4.72161 0.10183,-0.94707 0.21023,-1.76252 0.24087,-1.81211 0.0307,-0.0496 0.0542,-1.08921 0.0522,-2.31026 -0.004,-2.68822 0.0748,-2.94419 0.90902,-2.94419 0.39084,0 0.81541,0.52242 1.04353,1.28402 0.17504,0.58435 0.19549,0.96952 0.1721,3.2418 -0.0146,1.41826 -0.0718,2.81547 -0.12718,3.10491 -0.0554,0.28945 -0.12179,1.26039 -0.14764,2.15766 -0.0258,0.89727 -0.10681,2.54322 -0.1799,3.65768 -0.108,1.64675 -0.1074,2.24056 0.003,3.17029 0.16721,1.40605 0.072,1.73166 -0.5207,1.78001 -0.21226,0.0173 -0.46832,-0.0412 -0.60586,-0.13852 z M 27.734496,142.49426 c -0.58578,-0.30663 -1.14801,-1.10214 -1.14801,-1.62434 0,-0.23296 0.15303,-0.64732 0.41347,-1.11956 0.44961,-0.81526 0.90983,-2.0101 1.68916,-4.38549 0.27622,-0.8419 0.60786,-1.73782 0.73699,-1.99092 0.27917,-0.54723 1.47387,-4.12089 1.78028,-5.32532 0.24428,-0.96021 0.63493,-2.05428 1.01731,-2.84911 0.14273,-0.2967 0.4233,-1.13706 0.62348,-1.86747 0.20018,-0.7304 0.4302,-1.4586 0.51115,-1.6182 0.27767,-0.54749 1.2504,-3.86893 1.50291,-5.13176 0.1389,-0.69466 0.34461,-1.5472 0.45713,-1.89453 0.11252,-0.34733 0.25573,-0.92463 0.31825,-1.28288 0.0625,-0.35826 0.27685,-1.16671 0.47629,-1.79656 0.19945,-0.62985 0.48163,-1.64881 0.62708,-2.26436 0.14544,-0.61554 0.38162,-1.4305 0.52484,-1.811 0.14323,-0.38051 0.33176,-1.034 0.41896,-1.4522 0.0872,-0.41821 0.37587,-1.3745 0.64147,-2.1251 0.2656,-0.75059 0.57494,-1.74522 0.68742,-2.21028 0.11248,-0.46506 0.34521,-1.34287 0.51719,-1.950705 0.17198,-0.60783 0.43631,-1.62613 0.5874,-2.2629 0.93242,-3.92972 1.3046,-5.18274 1.62575,-5.47337 0.1109,-0.10037 0.41108,-0.20609 0.66706,-0.23494 0.98413,-0.11093 1.7534,0.44621 1.7534,1.26989 0,0.42267 -0.47571,1.9106 -0.9349,2.92417 -0.12098,0.26705 -0.31843,0.90645 -0.43876,1.4209 -0.50705,2.16768 -0.63178,2.661585 -0.77388,3.064355 -0.0824,0.23346 -0.20345,0.77863 -0.26906,1.21147 -0.0656,0.43285 -0.23945,1.11344 -0.3863,1.51243 -0.14684,0.39899 -0.4192,1.22357 -0.60523,1.8324 -0.18603,0.60884 -0.37193,1.16149 -0.41311,1.22813 -0.0412,0.0666 -0.14473,0.51576 -0.23011,0.99805 -0.0854,0.4823 -0.30348,1.25582 -0.48467,1.71892 -0.18119,0.46311 -0.37413,1.07883 -0.42876,1.36827 -0.15243,0.80776 -0.25594,1.22002 -0.43601,1.73665 -0.18762,0.53829 -0.43549,1.48814 -0.59052,2.26291 -0.0579,0.28944 -0.27193,1.21302 -0.47559,2.0524 -0.55129,2.27216 -0.65211,2.69453 -0.90441,3.78905 -0.12677,0.54994 -0.48002,1.66298 -0.785,2.47341 -0.30498,0.81044 -0.6581,1.87611 -0.78471,2.36816 -0.23251,0.90359 -0.67138,2.26124 -1.10575,3.42067 -0.13012,0.34733 -0.43871,1.43668 -0.68575,2.42078 -0.24704,0.98411 -0.63115,2.24181 -0.85358,2.79491 -0.22243,0.5531 -0.59797,1.64245 -0.83453,2.42078 -0.64085,2.10848 -0.69067,2.26356 -1.13321,3.52803 -0.54656,1.56169 -0.81737,2.09577 -1.33837,2.63951 -0.51701,0.53958 -0.83209,0.58361 -1.53677,0.21475 z m 120.558854,-5.53879 c -0.45823,-0.4171 -1.37385,-1.59705 -1.50314,-1.93712 -0.35018,-0.92103 0.83879,-1.30085 1.62161,-0.51803 0.40639,0.40638 0.57474,0.77791 0.74317,1.64007 0.14231,0.72846 0.1398,0.76175 -0.071,0.93942 -0.29354,0.24733 -0.40078,0.23047 -0.7906,-0.12434 z m -95.078254,-1.06308 c -1.11963,-0.13244 -2.40015,-0.48778 -4.03559,-1.11986 -1.03945,-0.40173 -3.42734,-1.91339 -3.93395,-2.49039 -0.48313,-0.55025 -1.34178,-2.02935 -1.72103,-2.96463 -0.2933,-0.72331 -0.34115,-0.96813 -0.33945,-1.73665 0.002,-0.75668 0.0553,-1.03259 0.34777,-1.78927 0.33093,-0.85621 0.40276,-0.95178 1.67228,-2.22498 1.15355,-1.15689 1.40111,-1.3544 1.89869,-1.51481 0.31471,-0.10145 0.8476,-0.36247 1.1842,-0.58003 0.33661,-0.21755 0.83694,-0.44451 1.11184,-0.50434 2.88116,-0.62704 3.70426,-0.71675 5.07047,-0.55267 0.49634,0.0596 1.54183,0.1556 2.32332,0.2133 1.23841,0.0914 1.70772,0.1729 2.80654,0.48717 0.17149,0.049 0.27302,-0.004 0.41027,-0.21319 l 0.18239,-0.27836 -0.80678,-1.17878 c -0.44372,-0.64834 -1.2252,-1.78784 -1.73662,-2.53223 -0.51142,-0.74439 -1.13367,-1.7627 -1.38279,-2.26291 -0.24912,-0.5002 -0.89358,-1.57707 -1.43213,-2.39304 -1.30491,-1.97709 -1.8342,-2.40897 -3.36438,-2.7452 -1.18005,-0.25929 -1.62527,-0.70286 -1.3054,-1.30054 0.2878,-0.53776 2.15124,-1.13554 2.96535,-0.95127 1.19255,0.26994 3.13782,1.90372 3.76862,3.16517 0.18817,0.37627 0.80087,1.3709 1.36156,2.21028 0.5607,0.83938 1.17686,1.81032 1.36925,2.15765 0.1924,0.34733 0.47606,0.79728 0.63037,0.99989 0.1543,0.20261 0.44399,0.64511 0.64375,0.98334 0.19975,0.33822 0.6744,1.02587 1.05477,1.5281 1.15362,1.52321 1.60862,2.38259 1.65162,3.11951 0.0856,1.46739 -0.46034,2.0531 -1.91243,2.05167 -0.41059,-4.2e-4 -1.14911,-0.0977 -1.64116,-0.21629 -2.50473,-0.60347 -8.06093,-0.99405 -9.10425,-0.63999 -0.23155,0.0786 -1.03977,0.44398 -1.79604,0.812 -1.15195,0.56057 -1.47236,0.77117 -1.975,1.29813 -1.14108,1.19631 -1.45429,2.31768 -1.029,3.68413 0.2885,0.92694 0.77775,1.61966 1.68557,2.38656 1.38213,1.16758 3.11148,1.89359 5.50091,2.30937 1.9524,0.33974 5.80234,0.0814 7.79685,-0.52326 1.59817,-0.48448 1.98961,-0.66368 3.36833,-1.54201 1.10052,-0.70109 1.61547,-1.13615 3.28932,-2.77896 1.85675,-1.82233 2.03795,-1.94515 2.25941,-1.53136 0.17524,0.32745 -0.77454,2.16789 -1.85568,3.59581 -0.24608,0.32501 -0.55616,0.86219 -0.68906,1.19373 -0.35007,0.8733 -1.21763,1.64792 -2.76188,2.46601 -1.49343,0.79117 -2.68828,1.20376 -4.45828,1.5395 -2.27063,0.43069 -5.22279,0.5825 -7.07255,0.3637 z m 50.599644,-8.95147 c -0.1013,-0.059 -0.18419,-0.18796 -0.18419,-0.28657 0,-0.21422 0.54903,-1.00698 1.03158,-1.48953 0.19037,-0.19037 0.45751,-0.56534 0.59363,-0.83326 0.13612,-0.26792 0.4537,-0.68351 0.70572,-0.92354 0.25203,-0.24004 0.59013,-0.60663 0.75134,-0.81467 0.1612,-0.20803 0.46906,-0.48003 0.68413,-0.60444 0.21507,-0.12441 0.48576,-0.35948 0.60153,-0.52237 0.11578,-0.16289 0.61309,-0.77543 1.10515,-1.36119 1.10483,-1.31527 1.76719,-2.24089 1.8556,-2.59313 0.0399,-0.15902 4.2e-4,-0.40846 -0.097,-0.61271 -0.1405,-0.29462 -0.29114,-0.39039 -1.0404,-0.66144 -0.48187,-0.17432 -1.30239,-0.41307 -1.82339,-0.53056 -2.30011,-0.5187 -2.96124,-0.65485 -3.17219,-0.65326 -0.4615,0.004 -0.65905,0.31827 -0.88477,1.40987 -0.29824,1.44238 -0.19287,1.95719 0.5359,2.6183 0.51223,0.46468 0.6843,0.91249 0.41464,1.07915 -0.0587,0.0363 -0.20618,0.26087 -0.32771,0.49908 -0.19008,0.37259 -0.21429,0.56644 -0.17329,1.38744 0.0262,0.52489 0.002,1.08797 -0.0536,1.25129 -0.1321,0.38747 -0.50379,0.5269 -1.02815,0.38571 -0.65476,-0.17631 -1.04199,-0.59119 -1.54718,-1.65767 -0.59284,-1.25149 -0.71698,-1.33593 -1.845512,-1.25541 -1.419114,0.10126 -3.680147,0.37438 -4.074687,0.4922 -0.594347,0.17749 -2.715128,0.51052 -3.683801,0.57847 -0.49205,0.0345 -1.297224,0.15557 -1.789275,0.269 -1.910871,0.44052 -4.885078,0.82865 -7.051847,0.92026 -3.083592,0.13038 -3.944612,0.007 -4.264922,-0.61273 -0.45632,-0.88243 0.0837,-1.55806 1.09249,-1.36676 0.91191,0.17294 5.474025,-0.0493 6.138461,-0.29908 0.134278,-0.0505 0.670409,-0.14986 1.191404,-0.22086 0.520994,-0.071 1.361189,-0.21924 1.867098,-0.32942 0.50591,-0.11018 1.140206,-0.20033 1.409548,-0.20033 0.269341,0 0.802678,-0.0928 1.185193,-0.20621 0.382514,-0.11341 1.42961,-0.32656 2.326879,-0.47365 0.897269,-0.14709 1.82085,-0.31643 2.052403,-0.3763 0.231553,-0.0599 0.847274,-0.15227 1.368269,-0.20531 2.517229,-0.2563 2.836069,-0.3133 3.025979,-0.54089 0.10131,-0.1214 0.18419,-0.33954 0.18419,-0.48474 0,-0.3343 -1.001068,-1.94089 -1.861521,-2.98752 -0.994221,-1.20933 -1.085095,-1.5882 -0.517161,-2.15613 0.337532,-0.33754 0.398796,-0.35782 1.078827,-0.35711 0.396535,4.2e-4 1.170925,0.0715 1.720865,0.15791 0.54994,0.0864 1.40247,0.20557 1.89452,0.26472 0.49205,0.0592 1.24987,0.20102 1.68403,0.31528 0.43416,0.11426 1.42879,0.3492 2.21028,0.52209 1.69435,0.37484 3.26169,0.83534 3.84168,1.12872 0.23155,0.11713 0.6815,0.29676 0.99988,0.39919 0.73049,0.23501 0.82585,0.31373 1.06999,0.88328 0.10957,0.25561 0.33991,0.62499 0.51188,0.82085 0.17196,0.19586 0.31266,0.47623 0.31266,0.62305 0,0.40269 -1.44226,2.53408 -2.57114,3.79967 -0.58498,0.65582 -3.402,3.0402 -4.98528,4.21963 -0.73553,0.54792 -1.51508,1.15576 -1.73232,1.35077 -0.43158,0.38738 -0.46573,0.39855 -0.73646,0.24086 z m -1.71508,-11.54219 c 0.071,-0.18513 -0.2183,-0.55329 -0.43483,-0.55329 -0.0791,0 -0.20014,0.12359 -0.26897,0.27466 -0.10595,0.23253 -0.0968,0.29539 0.0598,0.40987 0.22203,0.16236 0.5576,0.094 0.64402,-0.13124 z m 30.30955,9.71533 c -1.59526,-0.45 -2.68872,-1.22911 -3.77661,-2.69088 -1.2655,-1.70042 -2.04008,-3.53125 -2.80519,-6.63048 -0.34061,-1.37966 -0.35086,-1.48504 -0.35342,-3.63117 -0.005,-3.95838 0.33935,-4.99945 1.65223,-4.99945 0.83756,0 1.12198,0.20119 1.74148,1.23187 0.3022,0.50278 0.54945,1.02065 0.54945,1.15082 0,0.30194 -0.37251,0.56435 -0.80114,0.56435 -0.18332,0 -0.44511,0.0908 -0.58178,0.20181 -0.23911,0.1942 -0.24804,0.253 -0.23688,1.56028 0.0173,2.02972 0.0659,2.23776 0.67873,2.90834 0.56459,0.61775 0.60032,0.75922 0.36219,1.43416 -0.22038,0.62462 -0.20062,0.88657 0.14371,1.90523 0.36951,1.09316 0.52875,1.40932 1.20399,2.39047 0.60773,0.88306 1.2655,1.50044 2.02035,1.89626 0.44613,0.23394 0.66247,0.27634 1.42089,0.27848 1.05285,0.003 1.37117,-0.12446 2.2357,-0.89501 0.69982,-0.62374 1.39294,-1.67804 2.31611,-3.52303 0.76156,-1.52199 1.15818,-2.78525 1.71836,-5.47308 0.21906,-1.05106 0.26326,-1.55445 0.26343,-2.99966 0,-1.06879 0.0555,-1.99524 0.14398,-2.40906 0.14683,-0.68679 0.0913,-1.52738 -0.16359,-2.47506 -0.0943,-0.35081 -0.0808,-0.45089 0.0925,-0.68413 0.35687,-0.48023 1.29225,-0.39218 1.65105,0.15542 0.0899,0.13721 0.25911,0.75998 0.37602,1.38394 0.2595,1.38497 0.33946,1.58343 0.69193,1.71744 0.21564,0.082 0.44377,0.0489 1.03687,-0.15027 0.41822,-0.14047 1.13509,-0.31166 1.59304,-0.38043 0.45795,-0.0688 1.23522,-0.21503 1.72727,-0.32503 0.49205,-0.11 1.34459,-0.26502 1.89453,-0.3445 0.54994,-0.0795 1.17739,-0.2193 1.39435,-0.31072 0.59048,-0.24882 0.66352,-0.50471 0.50885,-1.78247 -0.17623,-1.45581 -0.50844,-3.59762 -0.74685,-4.815025 -0.1077,-0.54994 -0.29384,-1.64954 -0.41365,-2.44356 -0.1198,-0.79402 -0.28419,-1.74128 -0.36528,-2.10503 -0.0811,-0.36375 -0.2279,-1.15867 -0.32625,-1.7665 -0.24756,-1.53012 -0.65247,-3.64425 -1.47157,-7.68336 -0.28923,-1.42624 -0.29488,-1.59585 -0.0653,-1.96342 0.25496,-0.40821 0.70359,-0.52688 1.32946,-0.35165 0.65701,0.18395 0.9804,0.57793 1.22167,1.48836 0.23933,0.90313 0.5894,2.83376 0.732,4.03688 0.0549,0.46311 0.14655,0.97933 0.20369,1.14716 0.0572,0.16783 0.10391,0.41579 0.10391,0.55101 0,0.13522 0.14342,0.67757 0.31873,1.20522 0.17531,0.52765 0.41144,1.58219 0.52473,2.34341 0.1133,0.76123 0.25369,1.62086 0.31198,1.9103 0.0583,0.28944 0.18009,1.07093 0.27067,1.73665 0.0906,0.66572 0.25004,1.56562 0.35435,1.99978 0.10432,0.43416 0.27268,1.357745 0.37415,2.052405 0.31033,2.1245 0.47297,2.92571 0.64817,3.19311 0.1596,0.24357 0.20635,0.25325 0.9514,0.1969 0.64482,-0.0488 0.9921,-0.15452 1.96166,-0.59738 1.76377,-0.80563 2.31438,-1.11251 2.54274,-1.41718 0.17099,-0.22813 0.22168,-0.53543 0.29242,-1.77297 0.11006,-1.925305 0.13887,-2.397165 0.23598,-3.865165 0.10138,-1.53301 -0.10709,-8.06651 -0.31066,-9.73576 -0.44461,-3.64553 -0.75363,-8.47348 -0.57365,-8.96237 0.048,-0.1304 0.24403,-0.27952 0.46198,-0.35145 0.33434,-0.11034 0.43665,-0.0962 0.87487,0.12124 0.29067,0.14422 0.55304,0.36595 0.63337,0.53528 0.14134,0.29795 0.65022,4.48481 0.65152,5.36045 0,0.27072 0.0917,0.95748 0.20292,1.52615 0.1112,0.56866 0.23273,1.69702 0.27005,2.50746 0.0373,0.81044 0.13307,2.25501 0.21276,3.21017 0.11327,1.35777 0.12273,2.35663 0.0434,4.57844 -0.0558,1.56298 -0.14311,3.24437 -0.19395,3.73642 -0.0856,0.828455 -0.0768,0.908275 0.11925,1.078835 0.11642,0.1013 0.34513,0.18419 0.50825,0.18419 0.16311,0 0.37091,0.0743 0.46176,0.16519 0.18964,0.18964 0.14483,0.30626 -0.36117,0.93995 -0.61972,0.7761 -0.74798,1.14174 -0.7693,2.193 l -0.0196,0.96454 0.3204,0.0314 c 0.354,0.0347 0.54924,-0.16422 1.40362,-1.42977 0.72035,-1.06703 3.64689,-4.144945 4.22269,-4.441115 0.20261,-0.10421 0.91306,-0.39594 1.57877,-0.64828 1.07051,-0.40578 1.3077,-0.45827 2.0524,-0.45425 1.17156,0.006 2.16304,0.3312 3.28065,1.07495 1.14968,0.765105 1.95343,1.763435 3.0668,3.809195 0.78121,1.43546 0.84736,1.60767 1.05336,2.74204 0.12089,0.66572 0.27261,1.68402 0.33715,2.26291 0.0645,0.57888 0.20559,1.66823 0.31343,2.42078 0.50564,3.52824 0.50817,3.78946 0.0379,3.9075 -0.36776,0.0923 -0.70327,-0.11616 -1.24392,-0.77289 -0.64236,-0.78026 -0.82961,-1.39801 -2.06675,-6.81841 -0.76068,-3.33283 -2.03246,-5.58269 -3.42758,-6.06358 -0.57407,-0.19788 -2.48864,-0.16852 -3.06546,0.047 -1.18405,0.44243 -4.01914,3.0411 -4.74274,4.34724 -0.18794,0.33924 -0.6545,1.11412 -1.03678,1.72194 -0.3823,0.60783 -0.92537,1.56604 -1.20684,2.12935 -0.39907,0.79866 -0.66627,1.17422 -1.21342,1.70546 -1.24004,1.204 -1.62333,1.17766 -2.21235,-0.15201 l -0.34924,-0.78838 0.0685,-2.02858 c 0.0627,-1.85803 0.0526,-2.04607 -0.11979,-2.2366 -0.25019,-0.27645 -0.68443,-0.26288 -1.29057,0.0403 -0.27306,0.13659 -0.80431,0.34659 -1.18059,0.46668 -0.96596,0.30828 -2.03163,0.82469 -2.30724,1.11806 l -0.23442,0.24953 0.12998,2.0373 c 0.0715,1.12052 0.11978,3.29243 0.10731,4.82647 -0.0237,2.91628 -0.0814,3.33877 -0.61393,4.49784 -0.3337,0.72631 -1.20748,0.94132 -1.57097,0.38658 -0.13704,-0.20916 -0.14372,-0.35649 -0.0435,-0.96065 0.0862,-0.5197 0.0883,-1.22837 0.008,-2.60813 -0.19935,-3.40983 -0.2865,-4.55004 -0.35645,-4.66322 -0.0379,-0.0613 -0.11444,-0.58955 -0.17011,-1.17387 -0.0557,-0.58434 -0.15247,-1.15817 -0.2151,-1.27519 -0.19314,-0.3609 -0.55454,-0.42677 -1.17567,-0.2143 -0.30623,0.10476 -1.00675,0.29716 -1.55669,0.42755 -0.54993,0.1304 -1.93822,0.49274 -3.08507,0.80521 -1.1469,0.31246 -2.22177,0.56812 -2.38864,0.56812 -0.16688,0 -0.43133,0.11003 -0.58767,0.2445 -0.27643,0.23777 -0.28666,0.28776 -0.37146,1.81559 -0.0771,1.38863 -0.14314,1.77276 -0.56882,3.30773 -0.39371,1.41973 -0.63829,2.05358 -1.34024,3.47331 -1.01923,2.06145 -1.64121,2.94599 -3.09233,4.39769 -1.41442,1.41501 -2.02331,1.72398 -3.49971,1.77589 -0.66096,0.0233 -1.19678,-0.0166 -1.54556,-0.11502 z"
       style="fill:#ffffff;stroke-width:0.10525145" />
  </g>
</svg>
